<?xml version="1.0" encoding="utf-8"?>
<!-- Generator: Adobe Illustrator 23.1.1, SVG Export Plug-In . SVG Version: 6.00 Build 0)  -->
<svg version="1.1" id="Calque_1" xmlns="http://www.w3.org/2000/svg" xmlns:xlink="http://www.w3.org/1999/xlink" x="0px" y="0px"
	 viewBox="0 0 300 250" style="enable-background:new 0 0 300 250;" xml:space="preserve">
<style type="text/css">
	.st0{clip-path:url(#SVGID_2_);fill:#D82C26;}
	.st1{clip-path:url(#SVGID_4_);fill:#A8162C;}
	.st2{clip-path:url(#SVGID_6_);fill:#FFFFFF;}
	.st3{clip-path:url(#SVGID_8_);fill:#FFFFFF;}
	.st4{clip-path:url(#SVGID_10_);fill:#FFFFFF;}
</style>
<g>
	<g>
		<defs>
			<rect id="SVGID_1_" x="53.8" y="41.7" width="215.2" height="137.9"/>
		</defs>
		<clipPath id="SVGID_2_">
			<use xlink:href="#SVGID_1_"  style="overflow:visible;"/>
		</clipPath>
		<path class="st0" d="M230.4,97.3c0-0.6,0.4-1.1,0.9-1.3l10.9-5.1l-5.6-12.1L225.2,84c-0.2,0.1-0.4,0.1-0.6,0.1
			c-0.8,0-1.4-0.6-1.4-1.4V68.4h-13.4v14.3c0,0.8-0.6,1.4-1.4,1.4c-0.2,0-0.4-0.1-0.6-0.1l-11.4-5.3l-5.6,12.1l10.9,5.1
			c0.5,0.2,0.9,0.7,0.9,1.3c0,0.4-0.2,0.8-0.4,1l-8.7,8.7l9.4,9.4l8.8-8.8c0.3-0.3,0.6-0.4,1-0.4c0.8,0,1.4,0.6,1.4,1.4V122h4.7
			v-13.4c0-0.8,0.6-1.4,1.4-1.4c0.4,0,0.8,0.2,1,0.4l8.8,8.8l9.4-9.4l-8.7-8.7C230.6,98,230.4,97.7,230.4,97.3"/>
	</g>
	<g>
		<defs>
			<rect id="SVGID_3_" x="53.8" y="41.7" width="215.2" height="137.9"/>
		</defs>
		<clipPath id="SVGID_4_">
			<use xlink:href="#SVGID_3_"  style="overflow:visible;"/>
		</clipPath>
		<path class="st1" d="M216.5,122h2.4v-13.4c0-0.8,0.6-1.4,1.4-1.4c0.4,0,0.8,0.2,1,0.4l8.8,8.8l9.4-9.4l-8.7-8.7
			c-0.3-0.3-0.4-0.6-0.4-1c0-0.6,0.4-1.1,0.9-1.3l10.9-5.1l-5.6-12.1L225.2,84c-0.2,0.1-0.4,0.1-0.6,0.1c-0.8,0-1.4-0.6-1.4-1.4
			V68.4h-6.7V122z"/>
	</g>
	<g>
		<defs>
			<rect id="SVGID_5_" x="53.8" y="41.7" width="215.2" height="137.9"/>
		</defs>
		<clipPath id="SVGID_6_">
			<use xlink:href="#SVGID_5_"  style="overflow:visible;"/>
		</clipPath>
		<path class="st2" d="M100,143.9c5,0,8.7-4,8.7-9.8s-3.7-9.8-8.7-9.8s-8.7,4-8.7,9.8S95,143.9,100,143.9 M101.1,153.7
			c-3.6,0-6.6-1.2-8.6-2.7c-0.4-0.3-1,0-1,0.5v1.4H80.6V99.3h10.8v17.2c0,0.5,0.5,0.8,1,0.5c2-1.4,5-2.5,8.7-2.5
			c10.3,0,18.7,7.8,18.7,19.6C119.8,146.2,111.4,153.7,101.1,153.7"/>
	</g>
	<g>
		<defs>
			<rect id="SVGID_7_" x="53.8" y="41.7" width="215.2" height="137.9"/>
		</defs>
		<clipPath id="SVGID_8_">
			<use xlink:href="#SVGID_7_"  style="overflow:visible;"/>
		</clipPath>
		<path class="st3" d="M141.1,143.9c5,0,8.7-4,8.7-9.8s-3.7-9.8-8.7-9.8s-8.7,4-8.7,9.8C132.4,139.9,136.2,143.9,141.1,143.9
			 M140.1,153.7c-10.3,0-18.7-7.5-18.7-19.5c0-11.8,8.4-19.6,18.7-19.6c3.6,0,6.7,1.2,8.7,2.5c0.4,0.3,1,0,1-0.5V99.3h10.8v53.5
			h-10.8v-1.4c0-0.5-0.6-0.8-1-0.5C146.6,152.5,143.7,153.7,140.1,153.7"/>
	</g>
	<g>
		<defs>
			<rect id="SVGID_9_" x="53.8" y="41.7" width="215.2" height="137.9"/>
		</defs>
		<clipPath id="SVGID_10_">
			<use xlink:href="#SVGID_9_"  style="overflow:visible;"/>
		</clipPath>
		<path class="st4" d="M191,138.6c-2.4,3.1-5,4.9-8.7,4.9c-5.1,0-9.1-3.9-9.1-9.4s4-9.4,9.1-9.4c3.4,0,5.8,1.8,7.9,4.4l7.2-7.2
			c-3.9-4.4-8.5-7.4-15.5-7.4c-11.2,0-19.8,8.4-19.8,19.6s8.6,19.5,19.8,19.5c7.2,0,12.5-2.9,16.3-7.8L191,138.6z"/>
	</g>
</g>
</svg>
